# Blender v2.79 (sub 0) OBJ File: ''
# www.blender.org
mtllib models/cornell_box/cornell_box.mtl
o back_wall
v 276.399994 274.399933 559.200012
v 413.399963 137.199936 559.200012
v 275.599976 137.199936 559.200012
v 412.199982 -0.000048 559.200012
v 274.799988 -0.000048 559.200012
v 414.599976 274.399933 559.200012
v 551.199951 137.199936 559.200012
v 549.599976 -0.000048 559.200012
v 138.199997 274.399933 559.200012
v 137.799988 137.199936 559.200012
v 0.000000 274.399933 559.200012
v 137.399994 -0.000048 559.200012
v 0.000000 137.199936 559.200012
v 138.600006 411.599945 559.200012
v 277.200012 411.599915 559.200012
v 139.000000 548.799988 559.200012
v 278.000000 548.799988 559.200012
v 0.000000 411.599915 559.200012
v 0.000000 548.799988 559.200012
v 415.799988 411.599915 559.200012
v 552.799988 274.399933 559.200012
v 417.000000 548.799988 559.200012
v 554.400024 411.599915 559.200012
v 0.000000 -0.000048 559.200012
v 556.000000 548.799988 559.200012
vn 0.0000 0.0000 -1.0000
usemtl white
s 1
f 1//1 2//1 3//1
f 3//1 4//1 5//1
f 6//1 7//1 2//1
f 2//1 8//1 4//1
f 3//1 9//1 1//1
f 10//1 11//1 9//1
f 5//1 10//1 3//1
f 12//1 13//1 10//1
f 1//1 14//1 15//1
f 15//1 16//1 17//1
f 9//1 18//1 14//1
f 14//1 19//1 16//1
f 15//1 6//1 1//1
f 20//1 21//1 6//1
f 17//1 20//1 15//1
f 22//1 23//1 20//1
f 1//1 6//1 2//1
f 3//1 2//1 4//1
f 6//1 21//1 7//1
f 2//1 7//1 8//1
f 3//1 10//1 9//1
f 10//1 13//1 11//1
f 5//1 12//1 10//1
f 12//1 24//1 13//1
f 1//1 9//1 14//1
f 15//1 14//1 16//1
f 9//1 11//1 18//1
f 14//1 18//1 19//1
f 15//1 20//1 6//1
f 20//1 23//1 21//1
f 17//1 22//1 20//1
f 22//1 25//1 23//1
