# Blender v2.79 (sub 0) OBJ File: ''
# www.blender.org
mtllib models/cornell_box/cornell_box.mtl
o ceiling
v 278.000000 548.799988 139.800064
v 417.000000 548.799988 279.600067
v 278.000000 548.799988 279.600067
v 417.000000 548.799988 139.800064
v 556.000000 548.799988 279.600067
v 278.000000 548.799988 0.000048
v 417.000000 548.799988 0.000048
v 556.000000 548.799988 139.800064
v 417.000000 548.799988 419.400055
v 278.000000 548.799988 419.400085
v 417.000000 548.799988 559.200012
v 278.000000 548.799988 559.200012
v 556.000000 548.799988 419.400085
v 139.000000 548.799988 279.600067
v 139.000000 548.799988 419.400085
v 0.000000 548.799988 279.600067
v 139.000000 548.799988 559.200012
v 0.000000 548.799988 419.400085
v 139.000000 548.799988 139.800064
v 0.000000 548.799988 139.800064
v 139.000000 548.799988 0.000048
v 556.000000 548.799988 0.000048
v 556.000000 548.799988 559.200012
v 0.000000 548.799988 559.200012
v 0.000000 548.799988 0.000048
vn 0.0000 -1.0000 0.0000
usemtl white
s 1
f 1//1 2//1 3//1
f 4//1 5//1 2//1
f 6//1 4//1 1//1
f 7//1 8//1 4//1
f 3//1 9//1 10//1
f 10//1 11//1 12//1
f 5//1 9//1 2//1
f 13//1 11//1 9//1
f 10//1 14//1 3//1
f 15//1 16//1 14//1
f 12//1 15//1 10//1
f 17//1 18//1 15//1
f 14//1 1//1 3//1
f 19//1 6//1 1//1
f 16//1 19//1 14//1
f 20//1 21//1 19//1
f 1//1 4//1 2//1
f 4//1 8//1 5//1
f 6//1 7//1 4//1
f 7//1 22//1 8//1
f 3//1 2//1 9//1
f 10//1 9//1 11//1
f 5//1 13//1 9//1
f 13//1 23//1 11//1
f 10//1 15//1 14//1
f 15//1 18//1 16//1
f 12//1 17//1 15//1
f 17//1 24//1 18//1
f 14//1 19//1 1//1
f 19//1 21//1 6//1
f 16//1 20//1 19//1
f 20//1 25//1 21//1
