# Blender v2.79 (sub 0) OBJ File: ''
# www.blender.org
mtllib models/cornell_box/cornell_box.mtl
o floor
v 413.399963 -0.000024 279.600006
v 276.000000 -0.000012 139.800003
v 275.599976 -0.000024 279.600006
v 414.000000 -0.000012 139.800003
v 276.399994 0.000000 0.000000
v 551.199951 -0.000024 279.600006
v 552.000000 -0.000012 139.800003
v 414.599976 0.000000 0.000000
v 138.000000 -0.000012 139.800003
v 137.799988 -0.000024 279.600006
v 0.000000 -0.000012 139.800003
v 0.000000 -0.000024 279.600006
v 138.199997 0.000000 0.000000
v 0.000000 0.000000 0.000000
v 275.199982 -0.000036 419.400024
v 137.599991 -0.000036 419.399994
v 274.799988 -0.000048 559.200012
v 0.000000 -0.000036 419.400024
v 137.399994 -0.000048 559.200012
v 412.799988 -0.000036 419.400024
v 550.399963 -0.000036 419.400024
v 412.199982 -0.000048 559.200012
v 549.599976 -0.000048 559.200012
v 197.750000 -0.000012 129.250000
v 225.250000 -0.000016 181.000000
v 185.500000 -0.000014 169.000000
v 237.625000 -0.000012 141.375000
v 265.000000 -0.000016 193.000000
v 210.000000 -0.000008 89.500000
v 250.000000 -0.000008 101.750000
v 277.500000 -0.000014 153.500000
v 212.875000 -0.000020 220.625000
v 173.250000 -0.000018 208.750000
v 200.500000 -0.000022 260.250000
v 161.000000 -0.000022 248.500000
v 252.500000 -0.000020 232.500000
v 240.000000 -0.000024 272.000000
v 145.750000 -0.000014 157.000000
v 133.625000 -0.000018 196.875000
v 106.000000 -0.000012 145.000000
v 121.500000 -0.000020 236.750000
v 94.000000 -0.000016 185.000000
v 157.875000 -0.000010 117.125000
v 170.000000 -0.000006 77.250000
v 118.000000 -0.000010 105.000000
v 368.500000 -0.000030 351.250000
v 420.250000 -0.000034 378.687500
v 380.750000 -0.000034 391.125000
v 432.500000 -0.000036 418.500000
v 393.000000 -0.000038 431.000000
v 408.000000 -0.000030 338.875000
v 459.750000 -0.000032 366.250000
v 472.000000 -0.000036 406.000000
v 329.000000 -0.000032 363.625000
v 341.250000 -0.000036 403.562500
v 289.500000 -0.000032 376.000000
v 353.500000 -0.000038 443.500000
v 301.750000 -0.000036 416.000000
v 316.750000 -0.000028 323.687500
v 356.250000 -0.000028 311.375000
v 304.500000 -0.000024 283.750000
v 344.000000 -0.000024 271.500000
v 277.250000 -0.000030 336.000000
v 265.000000 -0.000026 296.000000
v 395.750000 -0.000026 299.062500
v 447.500000 -0.000028 326.500000
v 383.500000 -0.000022 259.250000
v 435.250000 -0.000026 286.750000
v 552.799988 0.000000 0.000000
v 0.000000 -0.000048 559.200012
v 290.000000 -0.000010 114.000000
v 82.000000 -0.000020 225.000000
v 130.000000 -0.000006 65.000000
v 314.000000 -0.000040 456.000000
v 423.000000 -0.000022 247.000000
vn 0.0000 1.0000 0.0000
vn -0.0000 -1.0000 -0.0000
usemtl white
s 1
f 1//1 2//1 3//1
f 4//1 5//1 2//1
f 6//1 4//1 1//1
f 7//1 8//1 4//1
f 3//1 9//1 10//1
f 10//1 11//1 12//1
f 2//1 13//1 9//1
f 9//1 14//1 11//1
f 10//1 15//1 3//1
f 16//1 17//1 15//1
f 12//1 16//1 10//1
f 18//1 19//1 16//1
f 3//1 20//1 1//1
f 1//1 21//1 6//1
f 15//1 22//1 20//1
f 20//1 23//1 21//1
f 24//2 25//2 26//2
f 27//2 28//2 25//2
f 29//2 27//2 24//2
f 30//2 31//2 27//2
f 26//2 32//2 33//2
f 33//2 34//2 35//2
f 25//2 36//2 32//2
f 32//2 37//2 34//2
f 33//2 38//2 26//2
f 39//2 40//2 38//2
f 35//2 39//2 33//2
f 41//2 42//2 39//2
f 26//2 43//2 24//2
f 24//2 44//2 29//2
f 40//2 43//2 38//2
f 45//2 44//2 43//2
f 46//2 47//2 48//2
f 48//2 49//2 50//2
f 51//2 52//2 47//2
f 47//2 53//2 49//2
f 48//2 54//2 46//2
f 55//2 56//2 54//2
f 50//2 55//2 48//2
f 57//2 58//2 55//2
f 46//2 59//2 60//2
f 60//2 61//2 62//2
f 54//2 63//2 59//2
f 59//2 64//2 61//2
f 60//2 51//2 46//2
f 65//2 66//2 51//2
f 62//2 65//2 60//2
f 67//2 68//2 65//2
f 1//1 4//1 2//1
f 4//1 8//1 5//1
f 6//1 7//1 4//1
f 7//1 69//1 8//1
f 3//1 2//1 9//1
f 10//1 9//1 11//1
f 2//1 5//1 13//1
f 9//1 13//1 14//1
f 10//1 16//1 15//1
f 16//1 19//1 17//1
f 12//1 18//1 16//1
f 18//1 70//1 19//1
f 3//1 15//1 20//1
f 1//1 20//1 21//1
f 15//1 17//1 22//1
f 20//1 22//1 23//1
f 24//2 27//2 25//2
f 27//2 31//2 28//2
f 29//2 30//2 27//2
f 30//2 71//2 31//2
f 26//2 25//2 32//2
f 33//2 32//2 34//2
f 25//2 28//2 36//2
f 32//2 36//2 37//2
f 33//2 39//2 38//2
f 39//2 42//2 40//2
f 35//2 41//2 39//2
f 41//2 72//2 42//2
f 26//2 38//2 43//2
f 24//2 43//2 44//2
f 40//2 45//2 43//2
f 45//2 73//2 44//2
f 46//2 51//2 47//2
f 48//2 47//2 49//2
f 51//2 66//2 52//2
f 47//2 52//2 53//2
f 48//2 55//2 54//2
f 55//2 58//2 56//2
f 50//2 57//2 55//2
f 57//2 74//2 58//2
f 46//2 54//2 59//2
f 60//2 59//2 61//2
f 54//2 56//2 63//2
f 59//2 63//2 64//2
f 60//2 65//2 51//2
f 65//2 68//2 66//2
f 62//2 67//2 65//2
f 67//2 75//2 68//2
