# Blender v2.79 (sub 0) OBJ File: ''
# www.blender.org
mtllib models/cornell_box/cornell_box.mtl
o light
v 278.000000 548.000000 253.250061
v 310.500000 548.000000 279.500061
v 278.000000 548.000000 279.500061
v 310.500000 548.000000 253.250061
v 343.000000 548.000000 279.500061
v 278.000000 548.000000 227.000061
v 310.500000 548.000000 227.000061
v 343.000000 548.000000 253.250061
v 278.000000 548.000000 305.750061
v 310.500000 548.000000 305.750061
v 278.000000 548.000000 332.000061
v 343.000000 548.000000 305.750061
v 310.500000 548.000000 332.000061
v 245.500000 548.000000 279.500061
v 245.500000 548.000000 305.750061
v 213.000000 548.000000 279.500061
v 245.500000 548.000000 332.000061
v 213.000000 548.000000 305.750061
v 245.500000 548.000000 253.250061
v 213.000000 548.000000 253.250061
v 245.500000 548.000000 227.000061
v 343.000000 548.000000 227.000061
v 343.000000 548.000000 332.000061
v 213.000000 548.000000 332.000061
v 213.000000 548.000000 227.000061
vn 0.0000 -1.0000 0.0000
usemtl light
s 1
f 1//1 2//1 3//1
f 4//1 5//1 2//1
f 6//1 4//1 1//1
f 7//1 8//1 4//1
f 2//1 9//1 3//1
f 10//1 11//1 9//1
f 5//1 10//1 2//1
f 12//1 13//1 10//1
f 9//1 14//1 3//1
f 15//1 16//1 14//1
f 11//1 15//1 9//1
f 17//1 18//1 15//1
f 14//1 1//1 3//1
f 19//1 6//1 1//1
f 16//1 19//1 14//1
f 20//1 21//1 19//1
f 1//1 4//1 2//1
f 4//1 8//1 5//1
f 6//1 7//1 4//1
f 7//1 22//1 8//1
f 2//1 10//1 9//1
f 10//1 13//1 11//1
f 5//1 12//1 10//1
f 12//1 23//1 13//1
f 9//1 15//1 14//1
f 15//1 18//1 16//1
f 11//1 17//1 15//1
f 17//1 24//1 18//1
f 14//1 19//1 1//1
f 19//1 21//1 6//1
f 16//1 20//1 19//1
f 20//1 25//1 21//1
