# Blender v2.79 (sub 0) OBJ File: ''
# www.blender.org
mtllib models/cornell_box/cornell_box.mtl
o short_block
v 185.500000 165.000000 169.000000
v 157.875000 165.000000 117.125015
v 145.750000 165.000000 157.000000
v 106.000000 165.000000 145.000000
v 197.750000 165.000000 129.250000
v 170.000000 165.000000 77.250015
v 118.000000 165.000000 105.000015
v 173.250000 164.999969 208.750000
v 133.625000 164.999969 196.875000
v 161.000000 164.999969 248.500000
v 94.000000 164.999969 185.000000
v 121.500000 164.999969 236.750000
v 212.875000 164.999969 220.625000
v 225.250000 164.999969 181.000000
v 252.500000 164.999969 232.500000
v 265.000000 164.999969 193.000000
v 200.500000 164.999969 260.250000
v 240.000000 164.999969 272.000000
v 237.625000 165.000000 141.375000
v 210.000000 165.000000 89.500015
v 277.500000 165.000000 153.500000
v 250.000000 165.000000 101.750015
v 265.000000 41.249985 193.000000
v 277.500000 82.499985 153.500000
v 265.000000 82.499985 193.000000
v 277.500000 41.249985 153.500000
v 290.000000 82.499985 114.000000
v 265.000000 -0.000016 193.000000
v 277.500000 -0.000014 153.500000
v 290.000000 41.249992 114.000000
v 265.000000 123.749985 193.000000
v 277.500000 123.749985 153.500000
v 265.000000 164.999969 193.000000
v 290.000000 123.749985 114.000015
v 277.500000 165.000000 153.500000
v 252.500000 82.499985 232.500000
v 252.500000 123.749985 232.500000
v 240.000000 82.499969 272.000000
v 252.500000 164.999969 232.500000
v 240.000000 123.749969 272.000000
v 252.500000 41.249977 232.500000
v 240.000000 41.249977 272.000000
v 252.500000 -0.000020 232.500000
v 210.000000 41.249992 89.500000
v 170.000000 82.500000 77.250000
v 210.000000 82.499985 89.500000
v 170.000000 41.249992 77.250000
v 130.000000 82.500000 65.000000
v 210.000000 -0.000008 89.500000
v 170.000000 -0.000006 77.250000
v 130.000000 41.249992 65.000000
v 210.000000 123.749985 89.500015
v 170.000000 123.750000 77.250015
v 210.000000 165.000000 89.500015
v 130.000000 123.750000 65.000015
v 170.000000 165.000000 77.250015
v 250.000000 82.499985 101.750000
v 250.000000 123.749985 101.750015
v 290.000000 82.499985 114.000000
v 250.000000 165.000000 101.750015
v 290.000000 123.749985 114.000015
v 250.000000 41.249992 101.750000
v 290.000000 41.249992 114.000000
v 250.000000 -0.000008 101.750000
v 106.000000 41.249985 145.000000
v 94.000000 82.499985 185.000000
v 106.000000 82.499985 145.000000
v 94.000000 41.249985 185.000000
v 82.000000 82.499985 225.000000
v 106.000000 -0.000012 145.000000
v 94.000000 -0.000016 185.000000
v 82.000000 41.249977 225.000000
v 106.000000 123.749985 145.000000
v 94.000000 123.749985 185.000000
v 106.000000 165.000000 145.000000
v 82.000000 123.749985 225.000000
v 94.000000 164.999969 185.000000
v 118.000000 82.499985 105.000000
v 118.000000 123.749985 105.000015
v 130.000000 82.500000 65.000000
v 118.000000 165.000000 105.000015
v 130.000000 123.750000 65.000015
v 118.000000 41.249992 105.000000
v 130.000000 41.249992 65.000000
v 118.000000 -0.000010 105.000000
v 161.000000 41.249977 248.500000
v 200.500000 82.499985 260.250000
v 161.000000 82.499985 248.500000
v 200.500000 41.249977 260.250000
v 240.000000 82.499969 272.000000
v 161.000000 -0.000022 248.500000
v 200.500000 -0.000022 260.250000
v 240.000000 41.249977 272.000000
v 161.000000 123.749985 248.500000
v 200.500000 123.749985 260.250000
v 161.000000 164.999969 248.500000
v 240.000000 123.749969 272.000000
v 200.500000 164.999969 260.250000
v 121.500000 82.499985 236.750000
v 121.500000 123.749985 236.750000
v 82.000000 82.499985 225.000000
v 121.500000 164.999969 236.750000
v 82.000000 123.749985 225.000000
v 121.500000 41.249977 236.750000
v 82.000000 41.249977 225.000000
v 121.500000 -0.000020 236.750000
v 130.000000 165.000000 65.000015
v 82.000000 164.999969 225.000000
v 290.000000 165.000000 114.000015
v 290.000000 -0.000010 114.000000
v 290.000000 165.000000 114.000015
v 240.000000 164.999969 272.000000
v 240.000000 -0.000024 272.000000
v 130.000000 -0.000006 65.000000
v 130.000000 165.000000 65.000015
v 290.000000 165.000000 114.000015
v 290.000000 -0.000010 114.000000
v 82.000000 -0.000020 225.000000
v 82.000000 164.999969 225.000000
v 130.000000 165.000000 65.000015
v 130.000000 -0.000006 65.000000
v 240.000000 -0.000024 272.000000
v 240.000000 164.999969 272.000000
v 82.000000 164.999969 225.000000
v 82.000000 -0.000020 225.000000
vn 0.0000 1.0000 0.0000
vn 0.9534 0.0000 0.3017
vn 0.2928 0.0000 -0.9562
vn -0.9578 0.0000 -0.2873
vn -0.2851 0.0000 0.9585
usemtl white
s 1
f 1//1 2//1 3//1
f 2//1 4//1 3//1
f 5//1 6//1 2//1
f 6//1 7//1 2//1
f 3//1 8//1 1//1
f 9//1 10//1 8//1
f 4//1 9//1 3//1
f 11//1 12//1 9//1
f 1//1 13//1 14//1
f 14//1 15//1 16//1
f 8//1 17//1 13//1
f 13//1 18//1 15//1
f 14//1 5//1 1//1
f 19//1 20//1 5//1
f 16//1 19//1 14//1
f 21//1 22//1 19//1
f 23//2 24//2 25//2
f 26//2 27//2 24//2
f 28//2 26//2 23//2
f 29//2 30//2 26//2
f 24//2 31//2 25//2
f 32//2 33//2 31//2
f 27//2 32//2 24//2
f 34//2 35//2 32//2
f 31//2 36//2 25//2
f 37//2 38//2 36//2
f 33//2 37//2 31//2
f 39//2 40//2 37//2
f 36//2 23//2 25//2
f 41//2 28//2 23//2
f 38//2 41//2 36//2
f 42//2 43//2 41//2
f 44//3 45//3 46//3
f 47//3 48//3 45//3
f 49//3 47//3 44//3
f 50//3 51//3 47//3
f 45//3 52//3 46//3
f 53//3 54//3 52//3
f 48//3 53//3 45//3
f 55//3 56//3 53//3
f 52//3 57//3 46//3
f 58//3 59//3 57//3
f 54//3 58//3 52//3
f 60//3 61//3 58//3
f 57//3 44//3 46//3
f 62//3 49//3 44//3
f 59//3 62//3 57//3
f 63//3 64//3 62//3
f 65//4 66//4 67//4
f 68//4 69//4 66//4
f 70//4 68//4 65//4
f 71//4 72//4 68//4
f 66//4 73//4 67//4
f 74//4 75//4 73//4
f 69//4 74//4 66//4
f 76//4 77//4 74//4
f 73//4 78//4 67//4
f 79//4 80//4 78//4
f 75//4 79//4 73//4
f 81//4 82//4 79//4
f 78//4 65//4 67//4
f 83//4 70//4 65//4
f 80//4 83//4 78//4
f 84//4 85//4 83//4
f 86//5 87//5 88//5
f 89//5 90//5 87//5
f 91//5 89//5 86//5
f 92//5 93//5 89//5
f 87//5 94//5 88//5
f 95//5 96//5 94//5
f 90//5 95//5 87//5
f 97//5 98//5 95//5
f 94//5 99//5 88//5
f 100//5 101//5 99//5
f 96//5 100//5 94//5
f 102//5 103//5 100//5
f 99//5 86//5 88//5
f 104//5 91//5 86//5
f 101//5 104//5 99//5
f 105//5 106//5 104//5
f 1//1 5//1 2//1
f 2//1 7//1 4//1
f 5//1 20//1 6//1
f 6//1 107//1 7//1
f 3//1 9//1 8//1
f 9//1 12//1 10//1
f 4//1 11//1 9//1
f 11//1 108//1 12//1
f 1//1 8//1 13//1
f 14//1 13//1 15//1
f 8//1 10//1 17//1
f 13//1 17//1 18//1
f 14//1 19//1 5//1
f 19//1 22//1 20//1
f 16//1 21//1 19//1
f 21//1 109//1 22//1
f 23//2 26//2 24//2
f 26//2 30//2 27//2
f 28//2 29//2 26//2
f 29//2 110//2 30//2
f 24//2 32//2 31//2
f 32//2 35//2 33//2
f 27//2 34//2 32//2
f 34//2 111//2 35//2
f 31//2 37//2 36//2
f 37//2 40//2 38//2
f 33//2 39//2 37//2
f 39//2 112//2 40//2
f 36//2 41//2 23//2
f 41//2 43//2 28//2
f 38//2 42//2 41//2
f 42//2 113//2 43//2
f 44//3 47//3 45//3
f 47//3 51//3 48//3
f 49//3 50//3 47//3
f 50//3 114//3 51//3
f 45//3 53//3 52//3
f 53//3 56//3 54//3
f 48//3 55//3 53//3
f 55//3 115//3 56//3
f 52//3 58//3 57//3
f 58//3 61//3 59//3
f 54//3 60//3 58//3
f 60//3 116//3 61//3
f 57//3 62//3 44//3
f 62//3 64//3 49//3
f 59//3 63//3 62//3
f 63//3 117//3 64//3
f 65//4 68//4 66//4
f 68//4 72//4 69//4
f 70//4 71//4 68//4
f 71//4 118//4 72//4
f 66//4 74//4 73//4
f 74//4 77//4 75//4
f 69//4 76//4 74//4
f 76//4 119//4 77//4
f 73//4 79//4 78//4
f 79//4 82//4 80//4
f 75//4 81//4 79//4
f 81//4 120//4 82//4
f 78//4 83//4 65//4
f 83//4 85//4 70//4
f 80//4 84//4 83//4
f 84//4 121//4 85//4
f 86//5 89//5 87//5
f 89//5 93//5 90//5
f 91//5 92//5 89//5
f 92//5 122//5 93//5
f 87//5 95//5 94//5
f 95//5 98//5 96//5
f 90//5 97//5 95//5
f 97//5 123//5 98//5
f 94//5 100//5 99//5
f 100//5 103//5 101//5
f 96//5 102//5 100//5
f 102//5 124//5 103//5
f 99//5 104//5 86//5
f 104//5 106//5 91//5
f 101//5 105//5 104//5
f 105//5 125//5 106//5
